<?xml version="1.0" encoding="UTF-8" standalone="no"?>
<!-- Created with Inkscape (http://www.inkscape.org/) -->

<svg
   width="24"
   height="24"
   viewBox="0 0 6.3500001 6.3500001"
   version="1.1"
   id="svg5"
   xml:space="preserve"
   xmlns="http://www.w3.org/2000/svg"
   xmlns:svg="http://www.w3.org/2000/svg"><defs
     id="defs2" /><g
     id="layer1"><g
       style="clip-rule:evenodd;fill-rule:evenodd;image-rendering:optimizeQuality;shape-rendering:geometricPrecision;text-rendering:geometricPrecision"
       id="g123"
       transform="matrix(0.17727099,0,0,0.17727099,13.247841,5.1723622)"><g
         id="g15"
         style="fill:#808080"
         transform="matrix(0.04101048,0,0,0.04101048,-80.993521,-30.523562)"><path
           style="opacity:1;fill:#808080;stroke-width:1.23732"
           fill="#fcfcfc"
           d="m 435.20501,39.100158 c 63.19106,-5.617422 112.47714,17.478351 147.85948,69.289792 15.04083,25.30686 22.25811,52.73449 21.65306,82.28163 0.0421,55.60754 -22.64168,98.91366 -68.05248,129.91837 -8.9953,3.97674 -17.44989,8.71938 -25.36502,14.22915 -0.41202,30.93295 -0.82529,61.86589 -1.23731,92.79884 -5.3613,0.82529 -10.72384,1.64934 -16.08513,2.47463 -0.8253,12.78521 -0.8253,25.57165 0,38.35685 0.61865,0.61866 1.23731,1.23732 1.85597,1.85598 40.82901,0.61866 81.6605,0.82529 122.49446,0.61866 -0.16209,-7.0787 0.45657,-14.09058 1.85598,-21.0344 1.85598,-3.50532 4.53724,-6.18659 8.04257,-8.04257 19.68201,-0.21653 39.2737,-0.83519 58.77259,-1.85597 0.82529,-6.59862 0.82529,-13.19847 0,-19.79709 -46.29919,-22.64168 -69.60284,-59.96661 -69.90845,-111.97726 1.79411,-53.33829 27.36575,-90.04456 76.7137,-110.12128 21.54294,-5.30562 43.40263,-6.95496 65.57784,-4.94927 52.84708,10.36501 84.81071,41.91661 95.89213,94.65481 5.38604,36.19649 -2.45113,69.19205 -23.50904,98.98542 -12.22841,13.73918 -26.6642,24.46301 -43.30612,32.17026 -1.92403,6.04059 -2.33606,12.22718 -1.23732,18.55977 0.61866,1.44395 1.64934,2.47464 3.09329,3.09329 18.64391,0.0594 37.20368,0.88469 55.6793,2.47464 3.37417,3.65751 5.23015,7.98812 5.56793,12.99184 0.22643,9.78965 0.84509,19.4828 1.85598,29.07696 20.50731,0.2153 40.92305,0.83396 61.24723,1.85598 0.82529,61.45386 0.82529,122.90649 0,184.36035 -0.97129,2.20985 -2.41401,4.06583 -4.33061,5.56793 -25.60011,0.17817 -51.17051,1.00347 -76.7137,2.47464 -0.61866,0.61866 -1.23732,1.23731 -1.85598,1.85597 -0.41203,50.31801 -0.82529,100.63477 -1.23732,150.95277 -4.79089,9.10171 -12.42143,13.22569 -22.89038,12.37318 -18.1366,-0.87478 -36.28434,-1.49344 -54.44198,-1.85598 -2.68127,-1.03068 -4.53724,-2.88666 -5.56793,-5.56793 -0.61866,-52.79016 -0.82529,-105.5828 -0.61866,-158.37667 -3.71195,0 -7.4239,0 -11.13586,0 0,51.59367 -0.20663,103.14899 -0.61866,154.66472 -2.21851,3.4583 -4.89978,6.5516 -8.04256,9.27988 -22.76541,1.18783 -45.44916,0.7758 -68.05248,-1.23731 -5.44296,-4.21431 -8.12299,-9.78224 -8.04257,-16.70379 -0.41202,-48.2554 -0.82529,-96.51079 -1.23731,-144.76618 -6.73967,-1.06905 -13.54492,-2.09973 -20.41575,-3.0933 -3.99406,-1.93393 -6.67533,-5.02722 -8.04256,-9.27988 -0.41203,-39.59417 -0.82529,-79.18834 -1.23732,-118.78251 -0.61866,-0.61866 -1.23732,-1.23732 -1.85598,-1.85598 -40.83148,-0.82529 -81.66297,-0.82529 -122.49446,0 -0.61866,0.61866 -1.23732,1.23732 -1.85597,1.85598 -0.8253,8.2492 -0.8253,16.49716 0,24.74636 0.61865,0.61865 1.23731,1.23731 1.85597,1.85597 13.19847,0.41203 26.3957,0.82529 39.59417,1.23732 1.56645,0.38233 3.0104,1.00099 4.33061,1.85598 0.82529,16.08513 0.82529,32.17026 0,48.25539 -0.92798,0.77456 -1.95991,1.39322 -3.09329,1.85598 -13.6105,0.41202 -27.22099,0.82529 -40.83149,1.23731 -0.61866,0.61866 -1.23732,1.23732 -1.85597,1.85598 -0.8253,25.15838 -0.8253,50.318 0,75.47639 0.61865,0.61866 1.23731,1.23731 1.85597,1.85597 15.55927,0.21901 31.02575,0.83767 46.39942,1.85598 0.82529,27.63302 0.82529,55.26727 0,82.90029 -16.08513,0.82529 -32.17026,1.64935 -48.25539,2.47464 -0.41203,28.04628 -0.8253,56.09132 -1.23732,84.13761 -11.69513,6.56768 -23.44965,12.9609 -35.26356,19.17842 -5.3613,0.82529 -10.72383,0.82529 -16.08513,0 -11.28805,-8.39891 -22.21728,-17.26553 -32.78892,-26.60233 -1.02945,-14.04108 -0.82406,-28.06361 0.61866,-42.06881 6.34867,-1.36971 12.74066,-1.36971 19.17842,0 2.91017,0.24128 5.38481,-0.58401 7.42391,-2.47463 0.82529,-10.72383 0.82529,-21.44643 0,-32.17026 -17.73448,-0.82529 -35.47019,-1.64935 -53.20466,-2.47464 -0.8253,-15.6731 -0.8253,-31.34497 0,-47.01807 5.59762,-2.72087 11.37218,-3.13289 17.32244,-1.23732 2.56001,-0.94531 5.24128,-1.56397 8.04257,-1.85598 1.75328,-6.70997 1.34001,-13.30859 -1.23732,-19.79708 -8.14279,-0.23138 -16.18535,-0.85004 -24.12769,-1.85598 -0.8253,-14.43579 -0.8253,-28.87034 0,-43.30612 8.24919,-0.82529 16.49715,-1.64935 24.74635,-2.47464 1.512,-12.73324 2.13066,-25.51968 1.85598,-38.35685 7.80376,-1.02821 15.64093,-1.64687 23.50904,-1.85598 1.13338,-0.46275 2.1653,-1.08141 3.09329,-1.85597 0.82529,-24.74636 0.82529,-49.49271 0,-74.23907 -9.17224,-1.21381 -18.45212,-1.62584 -27.83965,-1.23732 -0.20663,-30.93542 0,-61.86836 0.61866,-92.79883 8.79733,-0.8055 17.66518,-1.62955 26.60233,-2.47464 1.40559,-10.25117 1.61223,-20.56174 0.61866,-30.93294 -8.11309,-2.19748 -16.56892,-3.22816 -25.36501,-3.0933 -0.77457,-0.92798 -1.39322,-1.95991 -1.85598,-3.09329 0.052,-16.68647 0.2586,-33.39026 0.61866,-50.11137 0.16456,-13.48924 -0.4541,-26.8931 -1.85598,-40.21283 -57.25317,-20.55927 -90.66075,-60.97749 -100.22274,-121.25714 -7.66147,-55.44049 8.63029,-102.25194 48.87405,-140.435565 22.99184,-19.54096 49.38754,-31.295479 79.18834,-35.263557 z"
           id="path13" /></g></g></g></svg>
